<?xml version="1.0" encoding="utf-8"?>
<!-- Generator: Adobe Illustrator 26.3.1, SVG Export Plug-In . SVG Version: 6.00 Build 0)  -->
<svg version="1.1" id="Layer_1" xmlns="http://www.w3.org/2000/svg" xmlns:xlink="http://www.w3.org/1999/xlink" x="0px" y="0px"
	 viewBox="0 0 289.8 281.36" style="enable-background:new 0 0 289.8 281.36;" xml:space="preserve">
<style type="text/css">
	.st0{fill:#E41A3B;}
	.st1{fill:#FFFFFF;}
</style>
<g>
	<path class="st0" d="M269.9,65.93c-13.26-20.91-31.69-37.12-55.27-48.64C191.05,5.76,163.85,0,133.04,0H16.53C7.4,0,0,7.4,0,16.53
		v258.62c0,3.43,2.78,6.21,6.21,6.21h126.83c30.81,0,58-5.76,81.59-17.28c23.58-11.53,42-27.81,55.27-48.84
		c13.26-21.04,19.89-46.03,19.89-74.97C289.8,111.61,283.17,86.82,269.9,65.93z"/>
	<g>
		<g>
			<g>
				<path class="st1" d="M38.08,135.81v-38.6h15.28c4.08,0,7.67,0.83,10.75,2.48c3.09,1.65,5.49,3.93,7.2,6.84
					c1.71,2.9,2.56,6.23,2.56,9.98c0,3.75-0.86,7.08-2.56,9.98c-1.71,2.9-4.11,5.18-7.2,6.84c-3.09,1.65-6.67,2.48-10.75,2.48H38.08
					z M40.89,133.28h12.24c3.64,0,6.8-0.72,9.49-2.15c2.68-1.43,4.76-3.41,6.23-5.93c1.47-2.52,2.21-5.41,2.21-8.69
					c0-3.27-0.74-6.17-2.21-8.69c-1.47-2.52-3.55-4.49-6.23-5.93c-2.68-1.43-5.85-2.15-9.49-2.15H40.89V133.28z"/>
				<path class="st1" d="M80.54,135.81v-28.79h2.65v7.89l-0.28-0.88c0.81-2.32,2.17-4.1,4.08-5.35c1.91-1.25,4.3-1.87,7.17-1.87v2.7
					c-0.11,0-0.22-0.01-0.33-0.03c-0.11-0.02-0.22-0.03-0.33-0.03c-3.2,0-5.7,1-7.5,3.01c-1.8,2-2.7,4.79-2.7,8.35v15H80.54z"/>
				<path class="st1" d="M105.19,136.03c-2.13,0-3.98-0.34-5.54-1.02c-1.56-0.68-2.76-1.64-3.58-2.9c-0.83-1.25-1.24-2.68-1.24-4.3
					c0-1.47,0.34-2.8,1.02-4c0.68-1.19,1.81-2.17,3.39-2.92c1.58-0.75,3.69-1.13,6.34-1.13h10.59v2.15h-10.53
					c-2.98,0-5.06,0.55-6.26,1.65c-1.19,1.1-1.79,2.48-1.79,4.14c0,1.84,0.7,3.31,2.1,4.41c1.4,1.1,3.36,1.65,5.9,1.65
					c2.43,0,4.48-0.55,6.15-1.65c1.67-1.1,2.91-2.7,3.72-4.8l0.77,1.87c-0.77,2.1-2.09,3.76-3.94,4.99
					C110.42,135.42,108.06,136.03,105.19,136.03z M115.56,135.81v-6.56l-0.11-0.99v-10.81c0-2.68-0.73-4.72-2.18-6.12
					c-1.45-1.4-3.58-2.1-6.37-2.1c-1.99,0-3.83,0.34-5.54,1.02c-1.71,0.68-3.17,1.55-4.38,2.62l-1.38-1.99
					c1.43-1.29,3.16-2.29,5.18-3.01c2.02-0.72,4.14-1.08,6.34-1.08c3.57,0,6.3,0.9,8.22,2.7c1.91,1.8,2.87,4.49,2.87,8.05v18.25
					H115.56z"/>
				<path class="st1" d="M122.62,109.4v-2.37h17.21v2.37H122.62z M127.91,135.81v-33.2c0-2.39,0.69-4.31,2.07-5.76
					c1.38-1.45,3.35-2.18,5.93-2.18c1.07,0,2.11,0.16,3.14,0.47c1.03,0.31,1.87,0.78,2.54,1.41l-1.1,2.1
					c-0.55-0.55-1.21-0.96-1.99-1.21c-0.77-0.26-1.6-0.39-2.48-0.39c-1.76,0-3.11,0.49-4.03,1.46c-0.92,0.97-1.38,2.42-1.38,4.33
					v4.85l0.05,1.32v26.8H127.91z"/>
				<path class="st1" d="M138.5,109.4v-2.37h17.21v2.37H138.5z M151.63,136.03c-2.54,0-4.48-0.7-5.82-2.1
					c-1.34-1.4-2.01-3.31-2.01-5.74v-27.46h2.76v27.19c0,1.84,0.46,3.25,1.38,4.25c0.92,0.99,2.24,1.49,3.97,1.49
					c1.8,0,3.29-0.53,4.47-1.6l1.16,1.93c-0.74,0.7-1.63,1.21-2.67,1.54C153.8,135.87,152.73,136.03,151.63,136.03z"/>
				<path class="st1" d="M37.42,145.71h8.44l8.33,27.19l8.33-19.47h7.33l8.33,19.47l8.33-27.19h8.44l-12.68,40.64h-7.39l-8.71-20.24
					l-8.66,20.24h-7.44L37.42,145.71z"/>
				<path class="st1" d="M101.17,180.57c-3.79-3.9-5.68-8.79-5.68-14.67c0-5.85,1.91-10.73,5.74-14.67
					c3.86-4.04,8.82-6.07,14.89-6.07s11.03,2.02,14.89,6.07c3.79,3.9,5.68,8.79,5.68,14.67c0,5.92-1.89,10.83-5.68,14.72
					c-3.86,4.04-8.82,6.07-14.89,6.07C110.08,186.69,105.1,184.65,101.17,180.57z M125.32,175.11c2.24-2.39,3.36-5.46,3.36-9.21
					c0-3.75-1.12-6.8-3.36-9.15c-2.35-2.46-5.42-3.69-9.21-3.69c-3.82,0-6.89,1.23-9.21,3.69c-2.24,2.35-3.36,5.4-3.36,9.15
					c0,3.75,1.12,6.82,3.36,9.21c2.28,2.43,5.35,3.64,9.21,3.64C120.05,178.75,123.12,177.53,125.32,175.11z"/>
				<path class="st1" d="M141.09,145.71h19.58c4.19,0,7.63,1.2,10.31,3.58c2.65,2.43,3.97,5.7,3.97,9.82c0,2.68-0.58,4.97-1.74,6.87
					c-1.16,1.89-2.86,3.34-5.1,4.33l-1.05,0.39l9.37,15.66h-9.49l-8.11-14.12h-9.71v14.12h-8.05V145.71z M159.9,164.41
					c3.2,0,5.37-0.9,6.51-2.7c0.37-0.66,0.55-1.52,0.55-2.59c0-1.69-0.57-3.03-1.71-4.03c-1.29-1.07-3-1.6-5.13-1.6h-10.97v10.92
					H159.9z"/>
				<path class="st1" d="M180.85,145.71h8.05v15.11l16.1-15.11h11.53l-16.38,15.44l16.88,25.2h-9.87l-12.96-19.69l-5.29,4.96v14.72
					h-8.05V145.71z"/>
				<path class="st1" d="M222.88,182.88c-2.76-2.21-4.36-5.39-4.8-9.54l-0.22-2.15h8.27l0.11,1.82c0.11,1.84,1.01,3.25,2.7,4.25
					c1.65,0.96,3.99,1.43,7,1.43c2.54,0,4.42-0.27,5.65-0.8c1.23-0.53,1.99-1.11,2.29-1.74c0.29-0.62,0.44-1.29,0.44-1.99
					c0-0.44-0.07-0.81-0.22-1.1c-0.15-0.29-0.41-0.57-0.77-0.83c-1.07-0.74-2.45-1.36-4.14-1.87c-1.07-0.33-3.05-0.83-5.96-1.49
					c-1.87-0.4-3.99-1.07-6.34-1.99c-2.17-0.85-3.93-1.99-5.29-3.42c-1.62-1.58-2.43-3.71-2.43-6.4c0-3.64,1.38-6.58,4.14-8.82
					c2.68-2.17,6.56-3.25,11.64-3.25c5.15,0,9.17,1.21,12.08,3.64c2.79,2.28,4.26,5.17,4.41,8.66l0.11,2.04h-8.05l-0.22-1.71
					c-0.11-0.92-0.48-1.76-1.1-2.54c-0.63-0.77-1.75-1.4-3.36-1.87c-1.1-0.33-2.5-0.5-4.19-0.5c-1.69,0-3.07,0.18-4.14,0.55
					c-0.99,0.33-1.76,0.72-2.32,1.16c-0.44,0.41-0.72,0.81-0.83,1.21c-0.18,0.55-0.28,1.14-0.28,1.76c0,0.26,0.17,0.55,0.5,0.88
					c0.51,0.52,1.27,0.97,2.26,1.38c0.96,0.37,2.22,0.77,3.81,1.21l2.04,0.5l2.59,0.61l1.21,0.33c1.87,0.52,3.07,0.86,3.58,1.05
					c1.47,0.48,2.96,1.2,4.47,2.15c1.58,0.99,2.79,2.21,3.61,3.64c0.83,1.43,1.24,3.03,1.24,4.8c0,4.15-1.56,7.32-4.69,9.49
					c-2.94,2.06-6.88,3.09-11.8,3.09C230.26,186.52,225.93,185.31,222.88,182.88z"/>
			</g>
		</g>
		<rect x="169.55" y="116.46" class="st1" width="82.83" height="6.62"/>
	</g>
</g>
</svg>
